<svg width="68" height="68" viewBox="0 0 68 68" fill="none" xmlns="http://www.w3.org/2000/svg">
<path d="M19.25 34.25H48.75M48.75 34.25L37.75 21.75M48.75 34.25L37.75 46.25" stroke="#FCFAFA60" stroke-width="7" stroke-linecap="round" stroke-linejoin="round"/>
<path d="M34 64C17.4315 64 4 50.5685 4 34H0C0 52.7777 15.2223 68 34 68V64ZM64 34C64 50.5685 50.5685 64 34 64V68C52.7777 68 68 52.7777 68 34H64ZM34 4C50.5685 4 64 17.4315 64 34H68C68 15.2223 52.7777 0 34 0V4ZM34 0C15.2223 0 0 15.2223 0 34H4C4 17.4315 17.4315 4 34 4V0Z" fill="#FCFAFA60"/>
</svg>
