<svg width="68" height="68" viewBox="0 0 68 68" fill="none" xmlns="http://www.w3.org/2000/svg">
<path fill-rule="evenodd" clip-rule="evenodd" d="M23.1022 25.2235C23 25.605 23 26.07 23 27V41C23 41.93 23 42.395 23.1022 42.7765C23.3796 43.8117 24.1883 44.6204 25.2235 44.8978C25.605 45 26.07 45 27 45C27.93 45 28.395 45 28.7765 44.8978C29.8117 44.6204 30.6204 43.8117 30.8978 42.7765C31 42.395 31 41.93 31 41V27C31 26.07 31 25.605 30.8978 25.2235C30.6204 24.1883 29.8117 23.3796 28.7765 23.1022C28.395 23 27.93 23 27 23C26.07 23 25.605 23 25.2235 23.1022C24.1883 23.3796 23.3796 24.1883 23.1022 25.2235ZM37.1022 25.2235C37 25.605 37 26.07 37 27V41C37 41.93 37 42.395 37.1022 42.7765C37.3796 43.8117 38.1883 44.6204 39.2235 44.8978C39.605 45 40.07 45 41 45C41.93 45 42.395 45 42.7765 44.8978C43.8117 44.6204 44.6204 43.8117 44.8978 42.7765C45 42.395 45 41.93 45 41V27C45 26.07 45 25.605 44.8978 25.2235C44.6204 24.1883 43.8117 23.3796 42.7765 23.1022C42.395 23 41.93 23 41 23C40.07 23 39.605 23 39.2235 23.1022C38.1883 23.3796 37.3796 24.1883 37.1022 25.2235Z" fill="#F9BB06"/>
<path d="M34 64C17.4315 64 4 50.5685 4 34H0C0 52.7777 15.2223 68 34 68V64ZM64 34C64 50.5685 50.5685 64 34 64V68C52.7777 68 68 52.7777 68 34H64ZM34 4C50.5685 4 64 17.4315 64 34H68C68 15.2223 52.7777 0 34 0V4ZM34 0C15.2223 0 0 15.2223 0 34H4C4 17.4315 17.4315 4 34 4V0Z" fill="#F9BB06"/>
</svg>
