<svg width="68" height="68" viewBox="0 0 68 68" fill="none" xmlns="http://www.w3.org/2000/svg">
<path d="M25.5 39.9023V28.6085C25.5 25.8051 25.5 24.4034 26.0858 23.6215C26.5962 22.9402 27.3775 22.5142 28.2267 22.4543C29.2013 22.3855 30.3795 23.1448 32.7359 24.6635L42.0129 30.6426C44.1564 32.0241 45.2281 32.7148 45.5766 33.5781C45.8808 34.3318 45.8587 35.1778 45.5155 35.9146C45.1224 36.7585 44.0161 37.3923 41.8034 38.66L32.5264 43.9747C30.2194 45.2963 29.0659 45.9571 28.1199 45.8555C27.2947 45.7668 26.5456 45.3327 26.0585 44.6607C25.5 43.8904 25.5 42.561 25.5 39.9023Z" fill="#007ACC"/>
<path d="M34 64C17.4315 64 4 50.5685 4 34H0C0 52.7777 15.2223 68 34 68V64ZM64 34C64 50.5685 50.5685 64 34 64V68C52.7777 68 68 52.7777 68 34H64ZM34 4C50.5685 4 64 17.4315 64 34H68C68 15.2223 52.7777 0 34 0V4ZM34 0C15.2223 0 0 15.2223 0 34H4C4 17.4315 17.4315 4 34 4V0Z" fill="#007ACC"/>
</svg>
