<svg width="68" height="68" viewBox="0 0 68 68" fill="none" xmlns="http://www.w3.org/2000/svg">
<path fill-rule="evenodd" clip-rule="evenodd" d="M20.9373 28.7535C20.1336 30.8296 19.8474 33.0692 20.1021 35.2789C19.4222 35.4969 19.061 35.6356 18.8935 35.8687C18.7245 36.1039 18.6657 36.4008 18.7325 36.6827C18.8091 37.0061 19.1741 37.3114 19.9041 37.9219L19.9041 37.9219L23.7644 41.1504C24.4035 41.6849 24.723 41.9521 25.0317 41.9815C25.3014 42.0073 25.57 41.9224 25.7761 41.7464C26.0119 41.545 26.12 41.1428 26.3361 40.3382L27.6418 35.4781C27.8887 34.5591 28.0122 34.0995 27.8891 33.7908C27.7819 33.5217 27.5633 33.3124 27.2898 33.2169C27.0263 33.1249 26.6641 33.2112 26.0175 33.4109C26.0502 32.5607 26.2233 31.7187 26.5327 30.9197C26.9979 29.718 27.7565 28.6518 28.7393 27.8183C29.7221 26.9848 30.8978 26.4105 32.1594 26.1478C33.421 25.8851 34.7282 25.9422 35.9621 26.3141C37.5484 26.7922 39.222 25.8938 39.7001 24.3074C40.1782 22.721 39.2798 21.0474 37.6934 20.5693C35.5009 19.9085 33.1779 19.8069 30.9361 20.2738C28.6943 20.7407 26.6049 21.7612 24.8585 23.2423C23.1121 24.7234 21.7641 26.618 20.9373 28.7535ZM41.7248 28.8308C41.9739 27.9038 42.0984 27.4403 42.3702 27.2082C42.6076 27.0054 42.9171 26.9077 43.2279 26.9373C43.5836 26.9712 43.9518 27.2791 44.6881 27.8949L44.6882 27.8949L47.9133 30.5923L47.9134 30.5923C48.7545 31.2958 49.1751 31.6476 49.2634 32.0202C49.3403 32.345 49.2726 32.6872 49.0778 32.9582C48.9083 33.1942 48.5663 33.3462 47.9544 33.5501C48.0594 35.4877 47.7524 37.4298 47.049 39.2467C46.2223 41.3821 44.8743 43.2768 43.1279 44.7579C41.3814 46.239 39.2921 47.2595 37.0503 47.7263C34.8085 48.1932 32.4854 48.0916 30.2929 47.4309C28.7066 46.9528 27.8081 45.2792 28.2862 43.6928C28.7643 42.1064 30.4379 41.208 32.0243 41.6861C33.2581 42.0579 34.5654 42.1151 35.827 41.8524C37.0885 41.5896 38.2643 41.0154 39.2471 40.1819C40.2299 39.3484 40.9885 38.2822 41.4537 37.0805C41.658 36.5527 41.8029 36.0062 41.8872 35.4509C41.5065 35.5459 41.2466 35.5692 41.0396 35.4969C40.7245 35.3869 40.4725 35.1457 40.349 34.8356C40.2072 34.4799 40.3494 33.9504 40.6339 32.8913L41.7248 28.8308Z" fill="#00080D"/>
<path d="M34 64C17.4315 64 4 50.5685 4 34H0C0 52.7777 15.2223 68 34 68V64ZM64 34C64 50.5685 50.5685 64 34 64V68C52.7777 68 68 52.7777 68 34H64ZM34 4C50.5685 4 64 17.4315 64 34H68C68 15.2223 52.7777 0 34 0V4ZM34 0C15.2223 0 0 15.2223 0 34H4C4 17.4315 17.4315 4 34 4V0Z" fill="#00080D"/>
</svg>
