<svg width="68" height="68" viewBox="0 0 68 68" fill="none" xmlns="http://www.w3.org/2000/svg">
<path fill-rule="evenodd" clip-rule="evenodd" d="M30.9764 21.1475C30.8314 21.3411 30.7664 21.6011 30.6364 22.1211L30.3333 23.3334H31.6667L31.8236 22.7912C31.9194 22.4598 31.9674 22.2941 32.0644 22.1711C32.1501 22.0626 32.2625 21.9781 32.3906 21.926C32.5357 21.8669 32.7082 21.8669 33.0532 21.8669H34.9469C35.2919 21.8669 35.4644 21.8669 35.6095 21.926C35.7376 21.9781 35.8499 22.0626 35.9356 22.1711C36.0327 22.2941 36.0806 22.4598 36.1765 22.7912L36.3333 23.3334H37.6667L37.3636 22.1211C37.2336 21.6011 37.1686 21.3411 37.0236 21.1475C36.8957 20.9767 36.7246 20.8431 36.5279 20.7604C36.3049 20.6667 36.0369 20.6667 35.5009 20.6667H32.4991C31.9631 20.6667 31.6951 20.6667 31.4721 20.7604C31.2754 20.8431 31.1043 20.9767 30.9764 21.1475Z" fill="#FE0000"/>
<rect x="24" y="23.3335" width="20" height="3" rx="1.2" fill="#FE0000"/>
<path d="M24.3196 31.8249C24.2088 30.614 24.1533 30.0085 24.3551 29.5409C24.5323 29.1302 24.8421 28.7907 25.235 28.5768C25.6822 28.3333 26.2902 28.3333 27.5063 28.3333H40.4937C41.7098 28.3333 42.3178 28.3333 42.765 28.5768C43.1579 28.7907 43.4677 29.1302 43.6449 29.5409C43.8467 30.0085 43.7912 30.614 43.6804 31.8249L42.5271 44.4249C42.4331 45.4516 42.3861 45.965 42.156 46.3532C41.9533 46.695 41.6534 46.9688 41.2944 47.1395C40.8869 47.3333 40.3714 47.3333 39.3404 47.3333H28.6596C27.6286 47.3333 27.1131 47.3333 26.7056 47.1395C26.3466 46.9688 26.0467 46.695 25.844 46.3532C25.6139 45.965 25.5669 45.4516 25.4729 44.4249L24.3196 31.8249Z" fill="#FE0000"/>
<path d="M34 64C17.4315 64 4 50.5685 4 34H0C0 52.7777 15.2223 68 34 68V64ZM64 34C64 50.5685 50.5685 64 34 64V68C52.7777 68 68 52.7777 68 34H64ZM34 4C50.5685 4 64 17.4315 64 34H68C68 15.2223 52.7777 0 34 0V4ZM34 0C15.2223 0 0 15.2223 0 34H4C4 17.4315 17.4315 4 34 4V0Z" fill="#FE0000"/>
</svg>
